<svg width="61" height="60" viewBox="0 0 61 60" fill="none" xmlns="http://www.w3.org/2000/svg">
<path d="M35.8024 26.2C35.3336 25.7313 34.6978 25.468 34.0349 25.468C33.372 25.468 32.7362 25.7313 32.2674 26.2L30.4999 27.965C29.5569 28.8758 28.2939 29.3797 26.9829 29.3683C25.6719 29.3569 24.4178 28.8311 23.4908 27.9041C22.5638 26.977 22.0379 25.723 22.0265 24.412C22.0151 23.101 22.5191 21.838 23.4299 20.895L37.5049 6.81497C40.8372 6.05704 44.3237 6.36897 47.4685 7.70641C50.6133 9.04385 53.2565 11.3387 55.0221 14.2647C56.7877 17.1907 57.5859 20.5988 57.3032 24.0045C57.0205 27.4103 55.6713 30.6402 53.4474 33.235L48.1774 38.5725L35.8024 26.2ZM8.4024 11.17C10.9893 8.58341 14.3729 6.94492 18.0063 6.51939C21.6397 6.09385 25.3103 6.90616 28.4249 8.82497L19.8924 17.36C18.0444 19.2043 16.991 21.6982 16.9572 24.3089C16.9235 26.9195 17.9121 29.4398 19.7118 31.3313C21.5116 33.2228 23.9797 34.3353 26.5888 34.4313C29.1979 34.5273 31.7411 33.5991 33.6749 31.845L34.0349 31.5025L44.6424 42.1075L34.0349 52.715C33.0973 53.6523 31.8257 54.1789 30.4999 54.1789C29.1741 54.1789 27.9025 53.6523 26.9649 52.715L8.3999 34.15C5.35273 31.1025 3.64087 26.9695 3.64087 22.66C3.64087 18.3504 5.35523 14.2174 8.4024 11.17Z" fill="#40E0D0"/>
</svg>
