<svg width="21" height="20" viewBox="0 0 21 20" fill="none" xmlns="http://www.w3.org/2000/svg">
<path d="M16.6334 2.49992H15.8V0.833252H14.1334V2.49992H7.46672V0.833252H5.80005V2.49992H4.96672C4.04172 2.49992 3.30005 3.24159 3.30005 4.16659V15.8333C3.30005 16.2753 3.47564 16.6992 3.7882 17.0118C4.10076 17.3243 4.52469 17.4999 4.96672 17.4999H16.6334C17.55 17.4999 18.3 16.7499 18.3 15.8333V4.16659C18.3 3.72456 18.1245 3.30063 17.8119 2.98807C17.4993 2.67551 17.0754 2.49992 16.6334 2.49992ZM16.6334 15.8333H4.96672V6.66658H16.6334V15.8333ZM10.8 8.33325V9.99992H14.1334V12.4999H10.8V14.1666L7.46672 11.2499L10.8 8.33325Z" fill="#2D4763"/>
</svg>
