<svg width="45" height="46" viewBox="0 0 45 46" fill="none" xmlns="http://www.w3.org/2000/svg">
<g clip-path="url(#clip0_43_53)">
<path d="M22.5 0.5C10.0723 0.5 0 10.5723 0 23C0 35.4277 10.0723 45.5 22.5 45.5C34.9277 45.5 45 35.4277 45 23C45 10.5723 34.9277 0.5 22.5 0.5ZM35.6221 24.8721C35.6221 25.9092 34.7871 26.7441 33.75 26.7441H26.2529V34.25C26.2529 35.2871 25.418 36.1221 24.3809 36.1221H20.6279C19.5908 36.1221 18.7559 35.2783 18.7559 34.25V26.7529H11.25C10.2129 26.7529 9.37793 25.9092 9.37793 24.8809V21.1279C9.37793 20.0908 10.2129 19.2559 11.25 19.2559H18.7471V11.75C18.7471 10.7129 19.582 9.87793 20.6191 9.87793H24.3721C25.4092 9.87793 26.2441 10.7217 26.2441 11.75V19.2471H33.75C34.7871 19.2471 35.6221 20.0908 35.6221 21.1191V24.8721Z" fill="#40E0D0"/>
</g>
<defs>
<clipPath id="clip0_43_53">
<rect width="45" height="45" fill="white" transform="translate(0 0.5)"/>
</clipPath>
</defs>
</svg>
