<svg width="61" height="60" viewBox="0 0 61 60" fill="none" xmlns="http://www.w3.org/2000/svg">
<path d="M41.75 18.75C41.75 18.4185 41.6184 18.1005 41.3839 17.8661C41.1495 17.6317 40.8316 17.5 40.5 17.5C40.1685 17.5 39.8506 17.6317 39.6162 17.8661C39.3817 18.1005 39.25 18.4185 39.25 18.75V22.1675C38.105 22.58 36.9125 23.1475 35.5275 23.9025C35.2452 24.0656 35.0377 24.3325 34.9494 24.6464C34.8611 24.9603 34.8989 25.2963 35.0548 25.5827C35.2107 25.8691 35.4724 26.0832 35.7839 26.1794C36.0955 26.2755 36.4323 26.2462 36.7225 26.0975C37.5442 25.6414 38.3877 25.2259 39.25 24.8525V28.75C39.25 29.0815 39.3817 29.3995 39.6162 29.6339C39.8506 29.8683 40.1685 30 40.5 30C40.8316 30 41.1495 29.8683 41.3839 29.6339C41.6184 29.3995 41.75 29.0815 41.75 28.75V24.0438C42.855 23.81 44.0075 23.7325 45.4825 23.7538C45.8141 23.7584 46.1339 23.6311 46.3716 23.4C46.6093 23.1689 46.7454 22.8528 46.75 22.5213C46.7547 22.1897 46.6274 21.8699 46.3963 21.6322C46.1652 21.3945 45.8491 21.2584 45.5175 21.2538C44.1325 21.2338 42.9288 21.2937 41.75 21.4987V18.75ZM24.4275 36.1675C20.5563 34.6838 18.5325 34.34 14.8875 34.375L14.8625 31.875C18.8375 31.8375 21.1725 32.2425 25.3225 33.8325L24.4275 36.1675ZM14.8875 28.125C18.5325 28.09 20.5563 28.4338 24.4275 29.9175L25.3225 27.5825C21.1725 25.9925 18.8375 25.5863 14.8625 25.625L14.8875 28.125ZM24.4275 23.6675C20.5563 22.1838 18.5325 21.84 14.8875 21.875L14.8625 19.375C18.8375 19.3375 21.1725 19.7413 25.3225 21.3325L24.4275 23.6675Z" fill="#40E0D0"/>
<path fill-rule="evenodd" clip-rule="evenodd" d="M54.5538 14.0875C54.037 13.9636 53.5191 13.8449 53 13.7313V13.1563C53 12.05 52.2638 11.0388 51.145 10.7563C43.4575 8.82377 37.86 10.8713 31.45 13.8525C31.1375 13.9167 30.8208 13.9829 30.5 14.0513C30.1792 13.9829 29.8625 13.9167 29.55 13.8525C23.14 10.8713 17.5425 8.82377 9.85501 10.7575C9.32271 10.893 8.851 11.2026 8.51488 11.637C8.17876 12.0714 7.99753 12.6058 8.00001 13.155V13.73C7.49251 13.8417 6.97459 13.9613 6.44625 14.0888C6.17592 14.1542 5.93551 14.3089 5.76384 14.5277C5.59216 14.7466 5.49922 15.0169 5.5 15.295V47.2188C5.5 48.01 6.22875 48.6 7.005 48.4525C14.7713 46.9713 20.005 46.8675 27.1575 47.9525C27.4712 48.5694 27.9496 49.0874 28.5395 49.4492C29.1294 49.811 29.808 50.0025 30.5 50.0025C31.192 50.0025 31.8706 49.811 32.4605 49.4492C33.0505 49.0874 33.5288 48.5694 33.8425 47.9525C40.9938 46.8675 46.23 46.9713 53.995 48.4525C54.1774 48.4878 54.3653 48.4824 54.5454 48.4368C54.7255 48.3913 54.8933 48.3066 55.037 48.1888C55.1807 48.071 55.2966 47.9231 55.3767 47.7554C55.4567 47.5878 55.4988 47.4045 55.5 47.2188V15.295C55.5008 15.0169 55.4079 14.7466 55.2362 14.5277C55.0645 14.3089 54.8241 14.153 54.5538 14.0875ZM31.75 16.4713C38.3963 13.3413 43.4275 11.4038 50.5 13.1725V42.4613L50.4913 42.47C50.483 42.4765 50.4736 42.4811 50.4635 42.4837C50.4533 42.4863 50.4428 42.4867 50.4325 42.485C43.2675 41.1763 37.915 42.7525 31.7788 45.5288L31.7713 45.5325H31.7675L31.7538 45.5275L31.7513 45.525L31.75 16.4713ZM10.5 13.1713C17.5725 11.4025 22.6038 13.3413 29.25 16.4713V45.525L29.2463 45.5275L29.2438 45.5288L29.2325 45.5325L29.2213 45.53C23.085 42.7525 17.7325 41.1763 10.5675 42.4838C10.5573 42.4857 10.5468 42.4854 10.5367 42.4831C10.5266 42.4807 10.5171 42.4763 10.5088 42.47L10.505 42.4675L10.5 42.46V13.1713Z" fill="#40E0D0"/>
</svg>
