<svg width="61" height="60" viewBox="0 0 61 60" fill="none" xmlns="http://www.w3.org/2000/svg">
<path d="M41.75 49.8563L36.8937 45L34.25 47.6437L41.75 55.1437L56.75 40.1437L54.1063 37.5L41.75 49.8563Z" fill="white"/>
<path d="M30.5 33.75C32.5711 33.75 34.25 32.0711 34.25 30C34.25 27.9289 32.5711 26.25 30.5 26.25C28.4289 26.25 26.75 27.9289 26.75 30C26.75 32.0711 28.4289 33.75 30.5 33.75Z" fill="white"/>
<path d="M30.5 41.25C28.275 41.25 26.0999 40.5902 24.2498 39.354C22.3998 38.1179 20.9578 36.3609 20.1064 34.3052C19.2549 32.2495 19.0321 29.9875 19.4662 27.8052C19.9003 25.623 20.9717 23.6184 22.5451 22.0451C24.1184 20.4717 26.123 19.4003 28.3052 18.9662C30.4875 18.5321 32.7495 18.7549 34.8052 19.6064C36.8609 20.4578 38.6179 21.8998 39.854 23.7498C41.0902 25.5999 41.75 27.775 41.75 30C41.7465 32.9826 40.5602 35.8421 38.4511 37.9511C36.3421 40.0602 33.4826 41.2465 30.5 41.25ZM30.5 22.5C29.0166 22.5 27.5666 22.9399 26.3332 23.764C25.0999 24.5881 24.1386 25.7594 23.5709 27.1299C23.0032 28.5003 22.8547 30.0083 23.1441 31.4632C23.4335 32.918 24.1478 34.2544 25.1967 35.3033C26.2456 36.3522 27.582 37.0665 29.0368 37.3559C30.4917 37.6453 31.9997 37.4968 33.3701 36.9291C34.7406 36.3614 35.9119 35.4001 36.736 34.1668C37.5601 32.9334 38 31.4834 38 30C37.9975 28.0116 37.2065 26.1054 35.8006 24.6994C34.3946 23.2935 32.4884 22.5025 30.5 22.5Z" fill="white"/>
<path d="M53 30C53 25.5499 51.6804 21.1998 49.2081 17.4997C46.7357 13.7996 43.2217 10.9157 39.1104 9.21272C34.9991 7.50975 30.4751 7.06417 26.1105 7.93234C21.7459 8.80051 17.7368 10.9434 14.5901 14.0901C11.4434 17.2368 9.30051 21.2459 8.43234 25.6105C7.56417 29.9751 8.00975 34.4991 9.71272 38.6104C11.4157 42.7217 14.2996 46.2357 17.9997 48.7081C21.6998 51.1804 26.0499 52.5 30.5 52.5V48.75C26.7916 48.75 23.1665 47.6503 20.0831 45.5901C16.9996 43.5298 14.5964 40.6014 13.1773 37.1753C11.7581 33.7492 11.3868 29.9792 12.1103 26.3421C12.8338 22.7049 14.6195 19.364 17.2418 16.7418C19.864 14.1195 23.2049 12.3338 26.8421 11.6103C30.4792 10.8868 34.2492 11.2581 37.6753 12.6773C41.1014 14.0964 44.0298 16.4996 46.0901 19.5831C48.1503 22.6665 49.25 26.2916 49.25 30H53Z" fill="white"/>
</svg>
